<?xml version="1.0" standalone="no"?><!DOCTYPE svg PUBLIC "-//W3C//DTD SVG 1.1//EN" "http://www.w3.org/Graphics/SVG/1.1/DTD/svg11.dtd"><svg t="1588817829665" class="icon" viewBox="0 0 1024 1024" version="1.1" xmlns="http://www.w3.org/2000/svg" p-id="3315" xmlns:xlink="http://www.w3.org/1999/xlink" width="200" height="200"><defs><style type="text/css"></style></defs><path d="M902.120107 834.013867z" p-id="3316"></path><path d="M512.774827 1013.76c-311.913813 0-442.71616-111.568213-442.71616-340.8384 0-189.945173 148.353707-388.143787 328.198826-450.665813h229.07904c179.88608 62.522027 328.198827 260.72064 328.198827 450.665813C955.497813 902.191787 824.68864 1013.76 512.774827 1013.76z m122.699093-376.7808v-0.078507c20.66432-0.11264 37.410133-16.899413 37.410133-37.60128 0-20.773547-16.745813-37.553493-37.410133-37.632v-0.1536H559.5136c0.116053-0.805547-0.11264-1.573547-0.04096-2.420053l88.982187-90.94144c14.516907-16.397653 7.144107-29.835947-7.5264-44.701013-14.7456-14.8992-38.90176-18.049707-50.81088-5.031254l-76.499627 81.534294-82.681173-82.60608c-10.407253-10.451627-30.80192-7.109973-45.472427 7.560533-14.63296 14.670507-18.049707 35.027627-7.604907 45.469013l84.565334 84.527787a18.466133 18.466133 0 0 0-3.229014 6.64576h-68.703573v0.11264h-0.191147c-20.814507 0-37.635413 16.820907-37.635413 37.67296 0 20.739413 16.820907 37.638827 37.635413 37.638827 0.078507 0 0.116053-0.047787 0.191147-0.047787v0.078507h75.308373v37.56032h-75.308373v0.078506h-0.191147c-20.814507 0-37.635413 16.858453-37.635413 37.71392 0 20.732587 16.820907 37.632 37.635413 37.632 0.078507 0 0.116053-0.04096 0.191147-0.04096v0.04096h75.308373v37.946027h0.80896c-0.6144 2.914987-0.925013 5.986987-0.925013 9.13408 0 26.04032 21.121707 47.127893 47.12448 47.127893 25.995947 0 47.121067-21.087573 47.121067-47.127893 0-3.147093-0.34816-6.219093-0.9216-9.13408h0.457386v-37.946027l76.079787-0.04096c20.66432-0.11264 37.403307-16.892587 37.403307-37.594453 0-20.780373-16.738987-37.567147-37.403307-37.67296v-0.119467h-76.079787v-37.56032h76.00128v-0.023893h0.006827z m56.265387-565.193387l-7.912107 9.908907c-0.191147 0.1536-0.310613 0.382293-0.464213 0.576853l-67.01056 83.68128h-226.00704L323.52256 82.425173c-0.498347-0.498347-0.843093-1.0752-1.344853-1.573546l-7.2192-9.0624 1.303893-2.573654c-0.651947-2.304-1.460907-4.56704-1.460907-7.0656 0-12.02176 7.529813-22.1184 18.128214-26.269013l0.88064-1.80224s92.593493-18.51392 169.557333-18.82112c80.530773-0.3072 169.51296 18.82112 169.51296 18.82112l0.9216 1.80224c10.482347 4.1472 17.974613 14.288213 17.974613 26.231467 0 2.4576-0.805547 4.686507-1.378986 6.912l1.34144 2.761386z" p-id="3317"></path></svg>