<?xml version="1.0" standalone="no"?><!DOCTYPE svg PUBLIC "-//W3C//DTD SVG 1.1//EN" "http://www.w3.org/Graphics/SVG/1.1/DTD/svg11.dtd"><svg t="1591016857151" class="icon" viewBox="0 0 1024 1024" version="1.1" xmlns="http://www.w3.org/2000/svg" p-id="1473" xmlns:xlink="http://www.w3.org/1999/xlink" width="200" height="200"><defs><style type="text/css"></style></defs><path d="M263.5 361.5h48.3v48.3c0 13.8 11.2 25 25 25s25-11.2 25-25v-48.3H410c13.8 0 25-11.2 25-25s-11.2-25-25-25h-48.3v-48.3c0-13.8-11.2-25-25-25s-25 11.2-25 25v48.3h-48.3c-13.8 0-25 11.2-25 25s11.3 25 25.1 25z" p-id="1474"></path><path d="M767.9 137H256.1C190.4 137 137 190.4 137 256.1v511.8c0 65.7 53.4 119.1 119.1 119.1h511.8c65.7 0 119.1-53.4 119.1-119.1V256.1c0-65.7-53.4-119.1-119.1-119.1zM837 256.1V487H537V187h230.9c38.1 0 69.1 31 69.1 69.1zM256.1 187H487v300H187V256.1c0-38.1 31-69.1 69.1-69.1zM187 767.9V537h300v300H256.1c-38.1 0-69.1-31-69.1-69.1zM767.9 837H537V537h300v230.9c0 38.1-31 69.1-69.1 69.1z" p-id="1475"></path><path d="M621 349.3h155.6c13.8 0 25-11.2 25-25s-11.2-25-25-25H621c-13.8 0-25 11.2-25 25s11.2 25 25 25zM656 599.5c-7.9-11.4-23.4-14.2-34.8-6.3-11.4 7.9-14.2 23.4-6.3 34.8l101.3 146.5c4.9 7 12.7 10.8 20.6 10.8 4.9 0 9.9-1.4 14.2-4.4 11.4-7.9 14.2-23.4 6.3-34.8L656 599.5zM367.2 687l40.8-59c7.9-11.4 5-26.9-6.3-34.8-11.4-7.9-26.9-5-34.8 6.3L336.8 643l-30.1-43.5c-7.9-11.4-23.4-14.2-34.8-6.3s-14.2 23.4-6.3 34.8l40.8 59-40.8 59c-7.9 11.4-5 26.9 6.3 34.8 4.3 3 9.3 4.4 14.2 4.4 7.9 0 15.7-3.8 20.6-10.8l30.1-43.5 30.1 43.5c4.9 7 12.7 10.8 20.6 10.8 4.9 0 9.9-1.4 14.2-4.4 11.4-7.9 14.2-23.4 6.3-34.8l-40.8-59z" p-id="1476"></path></svg>