<?xml version="1.0" standalone="no"?><!DOCTYPE svg PUBLIC "-//W3C//DTD SVG 1.1//EN" "http://www.w3.org/Graphics/SVG/1.1/DTD/svg11.dtd"><svg t="1589094624485" class="icon" viewBox="0 0 1024 1024" version="1.1" xmlns="http://www.w3.org/2000/svg" p-id="1448" xmlns:xlink="http://www.w3.org/1999/xlink" width="200" height="200"><defs><style type="text/css"></style></defs><path d="M443.278222 556.828444a196.266667 196.266667 0 1 0 0-392.533333 196.266667 196.266667 0 0 0 0 392.533333z m0-51.2a145.066667 145.066667 0 1 1 0-290.133333 145.066667 145.066667 0 0 1 0 290.133333zM693.475556 541.468444a187.790222 187.790222 0 0 0 32.199111-349.866666 28.444444 28.444444 0 1 0-24.917334 51.2 130.844444 130.844444 0 0 1-22.414222 243.825778 28.444444 28.444444 0 1 0 15.132445 54.840888z" p-id="1449"></path><path d="M460.060444 505.628444c-173.568 0-297.073778 86.016-309.873777 238.307556a90.680889 90.680889 0 0 0 90.339555 98.304h435.484445a93.980444 93.980444 0 0 0 93.468444-103.367111c-15.075556-149.902222-137.386667-233.244444-309.418667-233.244445z m258.673778 242.631112a42.780444 42.780444 0 0 1-42.723555 42.780444H240.526222a39.480889 39.480889 0 0 1-39.310222-42.780444c10.24-122.368 109.397333-191.431111 258.844444-191.431112 148.195556 0 246.328889 66.901333 258.446223 187.164445 0.170667 1.422222 0.227556 2.844444 0.227555 4.266667z" p-id="1450"></path><path d="M951.694222 726.129778c0-3.242667-0.170667-6.428444-0.512-9.614222-13.767111-137.102222-117.816889-218.908444-269.141333-230.798223a28.444444 28.444444 0 0 0-4.494222 56.718223c126.122667 9.898667 206.279111 72.931556 217.031111 179.768888a38.798222 38.798222 0 0 1 0.227555 3.925334 28.444444 28.444444 0 0 0 56.888889 0z" p-id="1451"></path></svg>